<?xml version="1.0" standalone="no"?>
<!DOCTYPE svg PUBLIC "-//W3C//DTD SVG 20010904//EN"
 "http://www.w3.org/TR/2001/REC-SVG-20010904/DTD/svg10.dtd">
<svg version="1.0" xmlns="http://www.w3.org/2000/svg"
 width="376.000000pt" height="376.000000pt" viewBox="0 0 376.000000 376.000000"
 preserveAspectRatio="xMidYMid meet">
<metadata>
Created by potrace 1.14, written by Peter Selinger 2001-2017
</metadata>
<g transform="translate(0.000000,376.000000) scale(0.100000,-0.100000)"
fill="#000000" stroke="none">
<path d="M1854 3722 c-317 -405 -372 -532 -389 -897 -5 -103 -6 -577 -2 -724
l2 -83 -75 -28 c-101 -37 -242 -97 -386 -166 -66 -31 -152 -71 -191 -90 -40
-19 -73 -40 -74 -47 -1 -15 -1 -559 0 -570 1 -4 10 -3 21 3 11 6 20 9 20 6 0
-2 21 2 48 10 45 14 233 57 297 68 118 20 228 37 275 42 30 3 61 7 68 10 72
23 658 23 832 0 14 -2 48 -7 75 -10 83 -11 277 -44 325 -55 25 -5 59 -12 75
-15 43 -8 63 -13 130 -31 33 -9 68 -18 78 -20 9 -2 22 -7 27 -10 12 -8 12 -26
12 303 0 151 -3 277 -8 282 -26 23 -503 239 -644 290 l-75 28 2 79 c4 134 3
634 -1 713 -16 266 -43 382 -129 543 -41 78 -275 399 -288 396 -2 0 -13 -12
-25 -27z"/>
<path d="M1390 1103 c-29 -11 -60 -46 -71 -82 -8 -24 -12 -118 -12 -287 1
-246 1 -251 24 -287 49 -75 139 -88 199 -29 39 39 41 60 42 327 1 278 -2 295
-51 339 -21 19 -102 31 -131 19z"/>
<path d="M1807 1089 c-59 -44 -58 -39 -58 -528 0 -257 4 -457 9 -471 19 -48
86 -93 128 -85 11 2 24 4 31 4 20 2 74 53 85 80 6 16 10 198 9 474 0 439 0
449 -21 483 -12 19 -31 41 -43 49 -32 22 -106 19 -140 -6z"/>
<path d="M2241 1081 c-17 -16 -35 -41 -41 -56 -6 -17 -11 -133 -12 -284 -1
-255 -1 -257 23 -294 59 -91 179 -86 224 10 25 52 26 534 1 581 -39 75 -137
97 -195 43z"/>
</g>
</svg>
