<?xml version="1.0" standalone="no"?>
<!DOCTYPE svg PUBLIC "-//W3C//DTD SVG 20010904//EN"
 "http://www.w3.org/TR/2001/REC-SVG-20010904/DTD/svg10.dtd">
<svg version="1.0" xmlns="http://www.w3.org/2000/svg"
 width="400.000000pt" height="400.000000pt" viewBox="0 0 400.000000 400.000000"
 preserveAspectRatio="xMidYMid meet">
<metadata>
Created by potrace 1.14, written by Peter Selinger 2001-2017
</metadata>
<g transform="translate(0.000000,400.000000) scale(0.100000,-0.100000)"
fill="#000000" stroke="none">
<path d="M1839 3895 c-2 -2 -31 -6 -64 -9 -63 -6 -103 -12 -145 -22 -14 -3
-36 -8 -50 -11 -42 -8 -55 -11 -55 -13 0 -1 -7 -3 -15 -5 -8 -1 -35 -8 -60
-16 -25 -7 -50 -13 -57 -15 -7 -1 -27 -9 -44 -18 -18 -9 -36 -16 -41 -16 -23
0 -281 -128 -286 -141 -2 -5 -8 -9 -14 -9 -6 0 -33 -16 -59 -35 -27 -19 -52
-35 -55 -35 -4 0 -21 -12 -39 -27 -17 -16 -52 -44 -76 -63 -81 -64 -248 -237
-299 -310 -13 -19 -27 -37 -30 -40 -14 -11 -132 -204 -142 -231 -5 -16 -14
-29 -20 -29 -5 0 -7 -4 -4 -9 3 -4 -1 -17 -9 -27 -8 -10 -15 -26 -15 -36 0 -9
-4 -18 -9 -20 -7 -3 -83 -211 -96 -265 -24 -95 -46 -211 -52 -273 -15 -144 -8
-439 12 -530 3 -14 7 -36 9 -50 23 -151 141 -463 228 -600 40 -62 47 -75 54
-90 4 -8 10 -17 13 -20 4 -3 32 -40 64 -83 62 -83 219 -246 300 -313 50 -40
225 -164 232 -164 2 0 44 -21 92 -48 48 -26 126 -62 173 -81 47 -18 94 -37
105 -41 11 -5 34 -12 50 -16 17 -4 35 -8 40 -10 218 -58 302 -69 525 -69 143
0 238 6 315 20 26 5 49 9 100 21 6 1 21 4 35 7 48 9 205 59 214 68 6 5 16 9
23 9 33 0 234 101 353 178 280 180 506 430 662 732 35 67 97 212 104 240 0 3
4 12 7 20 7 16 45 154 53 192 32 152 39 226 39 408 0 137 -8 254 -20 310 -3
14 -10 49 -15 78 -5 29 -11 56 -14 60 -3 5 -7 20 -10 34 -18 102 -138 389
-200 481 -14 21 -26 40 -26 44 0 20 -170 232 -254 317 -101 102 -247 226 -266
226 -5 0 -10 5 -10 10 0 6 -7 10 -15 10 -8 0 -15 5 -15 10 0 6 -7 10 -15 10
-8 0 -15 5 -15 10 0 6 -7 10 -15 10 -8 0 -15 5 -15 10 0 6 -5 10 -10 10 -6 0
-41 17 -78 38 -37 21 -103 53 -147 71 -44 19 -95 40 -113 48 -18 8 -41 16 -51
18 -10 2 -49 12 -87 23 -75 22 -144 37 -214 48 -25 4 -56 9 -70 11 -31 6 -387
13 -391 8z"/>
</g>
</svg>
