<svg id="Layer_1" data-name="Layer 1" xmlns="http://www.w3.org/2000/svg" viewBox="0 0 496.553 800.002"><path d="M0,551.725C0,688.845,111.158,800,248.277,800h0C385.4,800,496.553,688.845,496.553,551.725c0-137.931-68.965-248.277-22.694-344.828,0,0-73.859,13.794-115.237,124.137,0,0-137.931-137.931-80.3-331.034,0,0-140.386,55.172-125.705,234.483,12.591,153.759-14.681,179.311-14.681,179.311,0-124.138-97.055-179.311-97.055-179.311C68.966,386.208,0,427.588,0,551.725Z" style="fill:#ffb446"/><path d="M427.489,610.523c0,103.271-79.739,191.432-182.991,189.44-97.168-1.872-169.464-75.8-161.737-172.377,3.448-43.1,36.206-112.931,89.655-183.62l35.632,21.551C206.9,378.163,248.277,262.07,248.277,262.07,275.458,384.388,427.489,416.092,427.489,610.523Z" style="fill:#ffdc64"/><path d="M179.311,524.139c-13.794,82.759-41.38,112.889-41.38,165.517C137.931,744.83,187.336,800,248.277,800h0c61.381,0,110.514-50.152,110.343-111.533-.461-164.856-96.55-247.088-96.55-247.088,13.794,82.76-27.586,124.138-27.586,124.138C217.247,539.666,179.311,524.139,179.311,524.139Z" style="fill:#fff"/></svg>