<svg id="Layer_1" data-name="Layer 1" xmlns="http://www.w3.org/2000/svg" viewBox="0 0 60 60"><circle cx="30" cy="30" r="30" style="fill:#12ad7e"/><path d="M32.653,26.087V23.478h7.782V18.261H19.565v5.217h7.8v2.609c-5.938.274-10.408,1.2-10.408,2.609s4.47,3.638,10.408,3.913V43.043h5.288V32.61c5.932-.275,10.39-2.5,10.39-3.913s-4.458-2.335-10.39-2.609ZM30,31.236c-1.367,0-2.289-.036-2.629-.054-5.246-.227-9.11-1.394-9.11-2.486s3.858-1.751,9.11-1.984V30A17.284,17.284,0,0,0,30,30.26,12.282,12.282,0,0,0,32.659,30V26.7c5.24.233,9.08.9,9.08,2s-3.852,2.247-9.086,2.486C32.5,31.188,31.707,31.236,30,31.236Z" style="fill:#fff"/></svg>